<?xml version="1.0" encoding="UTF-8" standalone="no"?>
<!-- Created with Inkscape (http://www.inkscape.org/) -->
<svg
   xmlns:dc="http://purl.org/dc/elements/1.1/"
   xmlns:cc="http://web.resource.org/cc/"
   xmlns:rdf="http://www.w3.org/1999/02/22-rdf-syntax-ns#"
   xmlns:svg="http://www.w3.org/2000/svg"
   xmlns="http://www.w3.org/2000/svg"
   xmlns:xlink="http://www.w3.org/1999/xlink"
   xmlns:sodipodi="http://sodipodi.sourceforge.net/DTD/sodipodi-0.dtd"
   xmlns:inkscape="http://www.inkscape.org/namespaces/inkscape"
   width="22"
   height="105"
   id="svg2160"
   sodipodi:version="0.32"
   inkscape:version="0.45.1"
   version="1.0"
   sodipodi:docbase="C:\Users\localtestbed\.workspace\org.freemedsoftware.gwt.client.FreemedInterface\src\org\freemedsoftware\gwt\public\resources\images"
   sodipodi:docname="button_bg.svg"
   inkscape:output_extension="org.inkscape.output.svg.inkscape"
   inkscape:export-filename="C:\Users\localtestbed\.workspace\org.freemedsoftware.gwt.client.FreemedInterface\src\org\freemedsoftware\gwt\public\resources\images\freemed-PrimaryMenuItem_bg_L.png"
   inkscape:export-xdpi="90"
   inkscape:export-ydpi="90">
  <defs
     id="defs2162">
    <linearGradient
       id="linearGradient5132">
      <stop
         style="stop-color:#48485b;stop-opacity:1"
         offset="0"
         id="stop5134" />
      <stop
         style="stop-color:#a4a4bd;stop-opacity:1;"
         offset="1"
         id="stop5136" />
    </linearGradient>
    <linearGradient
       inkscape:collect="always"
       id="linearGradient5089">
      <stop
         style="stop-color:#ffffff;stop-opacity:1;"
         offset="0"
         id="stop5091" />
      <stop
         style="stop-color:#ffffff;stop-opacity:0;"
         offset="1"
         id="stop5093" />
    </linearGradient>
    <filter
       inkscape:collect="always"
       id="filter6132">
      <feGaussianBlur
         inkscape:collect="always"
         stdDeviation="0.87640624"
         id="feGaussianBlur6134" />
    </filter>
    <filter
       inkscape:collect="always"
       id="filter8161">
      <feGaussianBlur
         inkscape:collect="always"
         stdDeviation="0.13076901"
         id="feGaussianBlur8163" />
    </filter>
    <filter
       inkscape:collect="always"
       id="filter8165">
      <feGaussianBlur
         inkscape:collect="always"
         stdDeviation="0.13076901"
         id="feGaussianBlur8167" />
    </filter>
    <filter
       inkscape:collect="always"
       id="filter8169">
      <feGaussianBlur
         inkscape:collect="always"
         stdDeviation="0.13076901"
         id="feGaussianBlur8171" />
    </filter>
    <linearGradient
       inkscape:collect="always"
       xlink:href="#linearGradient5089"
       id="linearGradient3190"
       gradientUnits="userSpaceOnUse"
       gradientTransform="matrix(0.75,0,0,0.75,390.84585,195.13399)"
       x1="64.833954"
       y1="-4.544754"
       x2="68.14286"
       y2="39.093838" />
    <linearGradient
       inkscape:collect="always"
       xlink:href="#linearGradient5089"
       id="linearGradient3209"
       gradientUnits="userSpaceOnUse"
       gradientTransform="matrix(0.75,0,0,0.75,536.43102,52.314394)"
       x1="64.833954"
       y1="-4.544754"
       x2="68.14286"
       y2="39.093838" />
    <filter
       inkscape:collect="always"
       x="-0.258075"
       width="1.51615"
       y="-0.012585187"
       height="1.0251704"
       id="filter3230">
      <feGaussianBlur
         inkscape:collect="always"
         stdDeviation="0.53765625"
         id="feGaussianBlur3232" />
    </filter>
    <filter
       inkscape:collect="always"
       id="filter3286">
      <feGaussianBlur
         inkscape:collect="always"
         stdDeviation="0.79466817"
         id="feGaussianBlur3288" />
    </filter>
    <linearGradient
       inkscape:collect="always"
       xlink:href="#linearGradient5089"
       id="linearGradient3298"
       gradientUnits="userSpaceOnUse"
       gradientTransform="translate(-297.38891,507.88464)"
       x1="280.94876"
       y1="-51.009975"
       x2="280.94876"
       y2="-34.112183" />
    <radialGradient
       inkscape:collect="always"
       xlink:href="#linearGradient5089"
       id="radialGradient3323"
       cx="-99.515007"
       cy="291.14841"
       fx="-99.515007"
       fy="291.14841"
       r="11.187563"
       gradientTransform="matrix(0,1.4347782,-1.5417543,0,372.31572,137.24971)"
       gradientUnits="userSpaceOnUse" />
    <linearGradient
       inkscape:collect="always"
       xlink:href="#linearGradient5089"
       id="linearGradient3325"
       gradientUnits="userSpaceOnUse"
       gradientTransform="translate(-276.37774,43.638591)"
       x1="280.94876"
       y1="-51.009975"
       x2="280.94876"
       y2="-34.112183" />
  </defs>
  <sodipodi:namedview
     id="base"
     pagecolor="#ffffff"
     bordercolor="#82cc00"
     borderopacity="1"
     inkscape:pageopacity="0.0"
     inkscape:pageshadow="2"
     inkscape:zoom="2"
     inkscape:cx="-26.905212"
     inkscape:cy="107.2804"
     inkscape:current-layer="layer1"
     showgrid="true"
     inkscape:grid-bbox="true"
     inkscape:document-units="px"
     width="22px"
     height="105px"
     borderlayer="true"
     inkscape:window-width="748"
     inkscape:window-height="579"
     inkscape:window-x="1244"
     inkscape:window-y="540"
     showguides="true"
     inkscape:guide-bbox="true" />
  <metadata
     id="metadata2165">
    <rdf:RDF>
      <cc:Work
         rdf:about="">
        <dc:format>image/svg+xml</dc:format>
        <dc:type
           rdf:resource="http://purl.org/dc/dcmitype/StillImage" />
      </cc:Work>
    </rdf:RDF>
  </metadata>
  <g
     id="layer1"
     inkscape:label="Layer 1"
     inkscape:groupmode="layer"
     transform="translate(82.701912,10.361399)">
    <rect
       style="fill:#48485b;fill-opacity:1;fill-rule:evenodd;stroke:#2b3565;stroke-width:1.45306277;stroke-linecap:round;stroke-linejoin:round;stroke-miterlimit:4;stroke-dasharray:none;stroke-opacity:1"
       id="rect2172"
       width="103.54694"
       height="28.546938"
       x="402.92322"
       y="193.05957"
       rx="6.1068211"
       ry="6.1068211" />
    <path
       style="opacity:0.6;fill:url(#linearGradient3190);fill-opacity:1;fill-rule:evenodd;stroke:none;stroke-width:2;stroke-linecap:round;stroke-linejoin:round;stroke-miterlimit:4;stroke-dasharray:none;stroke-opacity:1"
       d="M 409.04044,193.05961 C 405.65726,193.05961 402.92325,195.79362 402.92325,199.17679 L 402.92325,206.91117 C 413.5697,209.19868 421.42376,210.26437 445.88628,210.26437 C 470.3488,210.26437 503.77482,203.26807 503.77482,194.27836 C 503.77482,194.21612 503.77746,194.15293 503.77482,194.09086 C 502.80047,193.43368 501.62163,193.05961 500.35294,193.05961 L 409.04044,193.05961 z "
       id="path4118"
       sodipodi:nodetypes="ccczsccc" />
    <path
       style="fill:#ffffff;fill-opacity:1;fill-rule:evenodd;stroke:none;stroke-width:1.39999998;stroke-linecap:round;stroke-linejoin:round;stroke-miterlimit:4;stroke-dasharray:none;stroke-opacity:1"
       d="M 409.04044,193.05961 C 408.27393,193.05961 407.53554,193.20244 406.86075,193.45804 L 408.61856,193.45804 C 409.28336,193.45804 409.81387,193.98856 409.81387,194.65336 L 409.81387,197.58304 L 406.50919,197.58304 C 405.84438,197.58304 405.31387,198.11356 405.31387,198.77836 L 405.31387,200.95804 L 403.50919,200.95804 C 403.29595,200.95804 403.09578,200.89007 402.92325,200.79398 L 402.92325,202.08304 L 405.31387,202.08304 L 405.31387,203.32523 L 402.92325,203.32523 L 402.92325,204.61429 C 403.09578,204.51821 403.29594,204.45023 403.50919,204.45023 L 405.31387,204.45023 L 405.31387,206.13773 C 405.31387,206.80253 405.84439,207.33304 406.50919,207.33304 L 409.81387,207.33304 L 409.81387,210.75492 C 409.81387,211.41972 409.28337,211.95023 408.61856,211.95023 L 403.50919,211.95023 C 403.29595,211.95023 403.09578,211.88226 402.92325,211.78617 L 402.92325,213.07523 L 409.74356,213.07523 C 410.40837,213.07523 410.93887,212.54472 410.93887,211.87992 L 410.93887,207.33304 L 413.86856,207.33304 C 414.53337,207.33304 415.06387,206.80253 415.06387,206.13773 L 415.06387,198.77836 C 415.06387,198.11356 414.53336,197.58304 413.86856,197.58304 L 410.93887,197.58304 L 410.93887,193.52836 C 410.93887,193.36216 410.90525,193.20283 410.84512,193.05961 L 409.04044,193.05961 z M 407.63419,198.70804 L 409.81387,198.70804 L 409.81387,199.76273 C 409.81387,200.42753 409.28337,200.95804 408.61856,200.95804 L 406.43887,200.95804 L 406.43887,199.90336 C 406.43887,199.23856 406.96938,198.70804 407.63419,198.70804 z M 410.93887,198.70804 L 412.74356,198.70804 C 413.40836,198.70804 413.93887,199.23856 413.93887,199.90336 L 413.93887,205.01273 C 413.93887,205.67753 413.40837,206.20804 412.74356,206.20804 L 410.93887,206.20804 L 410.93887,204.52054 C 410.93887,203.85574 410.40836,203.32523 409.74356,203.32523 L 406.43887,203.32523 L 406.43887,202.08304 L 409.74356,202.08304 C 410.40837,202.08304 410.93887,201.55253 410.93887,200.88773 L 410.93887,198.70804 z M 406.43887,204.45023 L 408.61856,204.45023 C 409.28336,204.45023 409.81387,204.98075 409.81387,205.64554 L 409.81387,206.20804 L 407.63419,206.20804 C 406.96939,206.20804 406.43887,205.67753 406.43887,205.01273 L 406.43887,204.45023 z "
       id="path8210" />
    <rect
       ry="6.1068211"
       rx="6.1068211"
       y="193.05957"
       x="402.92322"
       height="28.546938"
       width="103.54694"
       id="rect5130"
       style="fill:none;fill-opacity:1;fill-rule:evenodd;stroke:#28386d;stroke-width:1.45306277;stroke-linecap:round;stroke-linejoin:round;stroke-miterlimit:4;stroke-dasharray:none;stroke-opacity:1" />
    <path
       style="opacity:0.3;fill:#000000;fill-opacity:1;fill-rule:evenodd;stroke:none;stroke-width:1.93741703;stroke-linecap:round;stroke-linejoin:round;stroke-miterlimit:4;stroke-dasharray:none;stroke-opacity:1;filter:url(#filter6132)"
       d="M 133.95982,1.5625 C 134.10422,2.1713867 134.17857,2.814464 134.17857,3.46875 L 134.17857,25.21875 C 134.17857,29.729655 130.56448,33.375 126.05357,33.375 L 4.2723217,33.375 C 3.1904117,33.375 2.1525917,33.161086 1.2098217,32.78125 C 2.0609917,36.370268 5.2594517,39.031251 9.1160717,39.03125 L 130.89732,39.03125 C 135.40823,39.03125 139.02234,35.385905 139.02232,30.875 L 139.02232,9.125 C 139.02232,5.6960071 136.94782,2.7663437 133.95982,1.5625 z "
       id="rect5140"
       transform="matrix(0.75,0,0,0.75,402.19669,192.33304)" />
    <g
       id="g8220"
       transform="matrix(0.75,0,0,0.75,402.19669,191.26162)"
       inkscape:export-filename="C:\Users\localtestbed\Desktop\button_bg.png"
       inkscape:export-xdpi="90"
       inkscape:export-ydpi="90">
      <rect
         style="opacity:1;fill:#acacba;fill-opacity:1;fill-rule:evenodd;stroke:#2b3565;stroke-width:1.93741703;stroke-linecap:round;stroke-linejoin:round;stroke-miterlimit:4;stroke-dasharray:none;stroke-opacity:1"
         id="rect6136"
         width="138.06258"
         height="38.062584"
         x="0.96870852"
         y="42.397278"
         rx="8.1424284"
         ry="8.1424284" />
      <path
         transform="matrix(-1,0,0,-1,139.42858,145.8884)"
         style="opacity:0.3;fill:#000000;fill-opacity:1;fill-rule:evenodd;stroke:none;stroke-width:1.93741703;stroke-linecap:round;stroke-linejoin:round;stroke-miterlimit:4;stroke-dasharray:none;stroke-opacity:1;filter:url(#filter6132)"
         d="M 133.95982,66.991071 C 134.10422,67.599958 134.17857,68.243035 134.17857,68.897321 L 134.17857,90.647321 C 134.17857,95.158226 130.56448,98.803571 126.05357,98.803571 L 4.2723217,98.803571 C 3.1904117,98.803571 2.1525917,98.589657 1.2098217,98.209821 C 2.0609917,101.79884 5.2594517,104.45982 9.1160717,104.45982 L 130.89732,104.45982 C 135.40823,104.45982 139.02234,100.81448 139.02232,96.303571 L 139.02232,74.553571 C 139.02232,71.124578 136.94782,68.194915 133.95982,66.991071 z "
         id="path6146" />
      <path
         id="rect8180"
         d="M 124.6875,57.21875 C 123.80109,57.218751 123.09375,57.9261 123.09375,58.8125 L 123.09375,68.625 C 123.09375,69.511395 123.8011,70.21875 124.6875,70.21875 L 128.59375,70.21875 L 128.59375,71.875 L 124.6875,71.875 C 123.80109,71.874994 123.09375,72.58235 123.09375,73.46875 L 123.09375,80.46875 L 124.59375,80.46875 L 124.59375,74.96875 C 124.59375,74.082344 125.30109,73.375 126.1875,73.375 L 128.59375,73.375 L 128.59375,75.625 C 128.59375,76.511395 129.3011,77.21875 130.1875,77.21875 L 134.59375,77.21875 L 134.59375,79.5625 C 135.13731,79.285711 135.62981,78.949325 136.09375,78.5625 L 136.09375,77.21875 L 137.40625,77.21875 C 137.75855,76.75123 138.06653,76.257647 138.3125,75.71875 L 136.09375,75.71875 L 136.09375,73.46875 C 136.09375,72.582346 135.3864,71.875 134.5,71.875 L 130.09375,71.875 L 130.09375,70.21875 L 134.5,70.21875 C 135.38641,70.218747 136.09375,69.5114 136.09375,68.625 L 136.09375,65.71875 L 138.5,65.71875 C 138.68467,65.718749 138.8669,65.755875 139.03125,65.8125 L 139.03125,64.21875 L 136.09375,64.21875 L 136.09375,58.8125 C 136.09375,57.926103 135.3864,57.21875 134.5,57.21875 L 124.6875,57.21875 z M 126.1875,58.71875 L 133,58.71875 C 133.8864,58.718751 134.59375,59.426102 134.59375,60.3125 L 134.59375,64.21875 L 130.1875,64.21875 C 129.30109,64.218747 128.59375,64.9261 128.59375,65.8125 L 128.59375,68.71875 L 126.1875,68.71875 C 125.3011,68.718747 124.59375,68.011398 124.59375,67.125 L 124.59375,60.3125 C 124.59375,59.426101 125.30109,58.71875 126.1875,58.71875 z M 131.6875,65.71875 L 134.59375,65.71875 L 134.59375,67.125 C 134.59375,68.011397 133.88641,68.71875 133,68.71875 L 130.09375,68.71875 L 130.09375,67.3125 C 130.09375,66.426097 130.80109,65.71875 131.6875,65.71875 z M 130.09375,73.375 L 133,73.375 C 133.8864,73.374994 134.59375,74.082352 134.59375,74.96875 L 134.59375,75.71875 L 131.6875,75.71875 C 130.8011,75.718747 130.09375,75.011398 130.09375,74.125 L 130.09375,73.375 z "
         style="opacity:1;fill:#48485b;fill-opacity:1;fill-rule:evenodd;stroke:none;stroke-width:1.39999998;stroke-linecap:round;stroke-linejoin:round;stroke-miterlimit:4;stroke-dasharray:none;stroke-opacity:1" />
      <path
         id="path6152"
         d="M 133.15626,42.142866 C 133.30066,42.751753 133.37501,43.39483 133.37501,44.049116 L 133.37501,65.799116 C 133.37501,70.310021 129.76092,73.955366 125.25001,73.955366 L 3.46876,73.955366 C 2.38685,73.955366 1.34903,73.741452 0.40626,73.361616 C 1.25743,76.95064 4.45589,79.61162 8.31251,79.61162 L 130.09376,79.61162 C 134.60467,79.61162 138.21878,75.966275 138.21876,71.455366 L 138.21876,49.705366 C 138.21876,46.276373 136.14426,43.34671 133.15626,42.142866 z "
         style="opacity:0.3;fill:#ffffff;fill-opacity:1;fill-rule:evenodd;stroke:none;stroke-width:1.93741703;stroke-linecap:round;stroke-linejoin:round;stroke-miterlimit:4;stroke-dasharray:none;stroke-opacity:1;filter:url(#filter6132)" />
      <rect
         ry="8.1424284"
         rx="8.1424284"
         y="42.397278"
         x="0.96870852"
         height="38.062584"
         width="138.06258"
         id="rect6144"
         style="opacity:1;fill:none;fill-opacity:1;fill-rule:evenodd;stroke:#28386d;stroke-width:1.93741703;stroke-linecap:round;stroke-linejoin:round;stroke-miterlimit:4;stroke-dasharray:none;stroke-opacity:1" />
    </g>
    <rect
       transform="scale(-1,1)"
       style="opacity:1;fill:#48485b;fill-opacity:1;fill-rule:evenodd;stroke:none;stroke-width:1.39999998;stroke-linecap:round;stroke-linejoin:round;stroke-miterlimit:4;stroke-dasharray:none;stroke-opacity:1"
       id="rect8182"
       width="12.9762"
       height="12.9762"
       x="-674.22864"
       y="343.81631"
       rx="1.6620978"
       ry="1.6620978" />
    <rect
       transform="scale(-1,1)"
       ry="1.6620978"
       rx="1.6620978"
       y="329.27789"
       x="-674.46582"
       height="12.9762"
       width="12.9762"
       id="rect8184"
       style="opacity:1;fill:#48485b;fill-opacity:1;fill-rule:evenodd;stroke:none;stroke-width:1.39999998;stroke-linecap:round;stroke-linejoin:round;stroke-miterlimit:4;stroke-dasharray:none;stroke-opacity:1" />
    <g
       id="g8186"
       transform="translate(402.19669,88.333044)"
       style="stroke:#2d2d2d;stroke-opacity:1">
      <rect
         style="opacity:0.5;fill:none;fill-opacity:1;fill-rule:evenodd;stroke:#2d2d2d;stroke-width:1.39999998;stroke-linecap:round;stroke-linejoin:round;stroke-miterlimit:4;stroke-dasharray:none;stroke-opacity:1;filter:url(#filter8169)"
         id="rect8188"
         width="12.9762"
         height="12.9762"
         x="-12.280708"
         y="0.62032461"
         rx="1.6620978"
         ry="1.6620978"
         transform="scale(-1,1)" />
      <rect
         ry="1.6620978"
         rx="1.6620978"
         y="8.3118229"
         x="-19.331245"
         height="12.9762"
         width="12.9762"
         id="rect8190"
         style="opacity:0.5;fill:none;fill-opacity:1;fill-rule:evenodd;stroke:#2d2d2d;stroke-width:1.39999998;stroke-linecap:round;stroke-linejoin:round;stroke-miterlimit:4;stroke-dasharray:none;stroke-opacity:1;filter:url(#filter8165)"
         transform="scale(-1,1)" />
      <rect
         style="opacity:0.5;fill:none;fill-opacity:1;fill-rule:evenodd;stroke:#2d2d2d;stroke-width:1.39999998;stroke-linecap:round;stroke-linejoin:round;stroke-miterlimit:4;stroke-dasharray:none;stroke-opacity:1;filter:url(#filter8161)"
         id="rect8192"
         width="12.9762"
         height="12.9762"
         x="-11.479515"
         y="16.323799"
         rx="1.6620978"
         ry="1.6620978"
         transform="scale(-1,1)" />
    </g>
    <path
       id="path8215"
       d="M 617.60872,331.99398 C 616.72231,331.99398 616.01497,332.70133 616.01497,333.58773 L 616.01497,343.40023 C 616.01497,344.28662 616.72232,344.99398 617.60872,344.99398 L 621.51497,344.99398 L 621.51497,346.65023 L 617.60872,346.65023 C 616.72231,346.65022 616.01497,347.35758 616.01497,348.24398 L 616.01497,358.05648 C 616.01497,358.94287 616.72232,359.65023 617.60872,359.65023 L 627.42122,359.65023 C 628.30763,359.65022 629.01497,358.94288 629.01497,358.05648 L 629.01497,351.99398 L 632.92122,351.99398 C 633.80763,351.99398 634.51497,351.28663 634.51497,350.40023 L 634.51497,340.58773 C 634.51497,339.70133 633.80762,338.99398 632.92122,338.99398 L 629.01497,338.99398 L 629.01497,333.58773 C 629.01497,332.70133 628.30762,331.99398 627.42122,331.99398 L 617.60872,331.99398 z M 619.10872,333.49398 L 625.92122,333.49398 C 626.80762,333.49398 627.51497,334.20133 627.51497,335.08773 L 627.51497,338.99398 L 623.10872,338.99398 C 622.22231,338.99398 621.51497,339.70133 621.51497,340.58773 L 621.51497,343.49398 L 619.10872,343.49398 C 618.22232,343.49398 617.51497,342.78662 617.51497,341.90023 L 617.51497,335.08773 C 617.51497,334.20133 618.22231,333.49398 619.10872,333.49398 z M 624.60872,340.49398 L 627.51497,340.49398 L 627.51497,341.90023 C 627.51497,342.78663 626.80763,343.49398 625.92122,343.49398 L 623.01497,343.49398 L 623.01497,342.08773 C 623.01497,341.20133 623.72231,340.49398 624.60872,340.49398 z M 629.01497,340.49398 L 631.42122,340.49398 C 632.30762,340.49398 633.01497,341.20133 633.01497,342.08773 L 633.01497,348.90023 C 633.01497,349.78663 632.30763,350.49398 631.42122,350.49398 L 629.01497,350.49398 L 629.01497,348.24398 C 629.01497,347.35757 628.30762,346.65023 627.42122,346.65023 L 623.01497,346.65023 L 623.01497,344.99398 L 627.42122,344.99398 C 628.30763,344.99398 629.01497,344.28663 629.01497,343.40023 L 629.01497,340.49398 z M 619.10872,348.15023 L 621.51497,348.15023 L 621.51497,350.40023 C 621.51497,351.28662 622.22232,351.99398 623.10872,351.99398 L 627.51497,351.99398 L 627.51497,356.55648 C 627.51497,357.44287 626.80763,358.15023 625.92122,358.15023 L 619.10872,358.15023 C 618.22232,358.15022 617.51497,357.44287 617.51497,356.55648 L 617.51497,349.74398 C 617.51497,348.85757 618.22231,348.15023 619.10872,348.15023 z M 623.01497,348.15023 L 625.92122,348.15023 C 626.80762,348.15022 627.51497,348.85758 627.51497,349.74398 L 627.51497,350.49398 L 624.60872,350.49398 C 623.72232,350.49398 623.01497,349.78662 623.01497,348.90023 L 623.01497,348.15023 z "
       style="opacity:1;fill:#48485b;fill-opacity:1;fill-rule:evenodd;stroke:none;stroke-width:1.39999998;stroke-linecap:round;stroke-linejoin:round;stroke-miterlimit:4;stroke-dasharray:none;stroke-opacity:1" />
    <rect
       ry="6.1068211"
       rx="6.1068211"
       y="50.239983"
       x="548.50836"
       height="28.546938"
       width="103.54694"
       id="rect3199"
       style="fill:#48485b;fill-opacity:1;fill-rule:evenodd;stroke:#2b3565;stroke-width:1.45306277;stroke-linecap:round;stroke-linejoin:round;stroke-miterlimit:4;stroke-dasharray:none;stroke-opacity:1" />
    <path
       sodipodi:nodetypes="ccczsccc"
       id="path3201"
       d="M 554.62561,50.240014 C 551.24243,50.240014 548.50842,52.974024 548.50842,56.357204 L 548.50842,64.091574 C 559.15487,66.379084 567.00893,67.444784 591.47145,67.444784 C 615.93397,67.444784 649.35999,60.448474 649.35999,51.458764 C 649.35999,51.396524 649.36263,51.333334 649.35999,51.271264 C 648.38564,50.614084 647.2068,50.240014 645.93811,50.240014 L 554.62561,50.240014 z "
       style="opacity:0.6;fill:url(#linearGradient3209);fill-opacity:1;fill-rule:evenodd;stroke:none;stroke-width:2;stroke-linecap:round;stroke-linejoin:round;stroke-miterlimit:4;stroke-dasharray:none;stroke-opacity:1" />
    <path
       id="path3203"
       d="M 554.62561,50.240014 C 553.8591,50.240014 553.12071,50.382844 552.44592,50.638454 L 554.20373,50.638454 C 554.86853,50.638454 555.39904,51.168964 555.39904,51.833764 L 555.39904,54.763454 L 552.09436,54.763454 C 551.42955,54.763454 550.89904,55.293964 550.89904,55.958764 L 550.89904,58.138454 L 549.09436,58.138454 C 548.88112,58.138454 548.68095,58.070474 548.50842,57.974384 L 548.50842,59.263454 L 550.89904,59.263454 L 550.89904,60.505634 L 548.50842,60.505634 L 548.50842,61.794704 C 548.68095,61.698614 548.88112,61.630634 549.09436,61.630634 L 550.89904,61.630634 L 550.89904,63.318134 C 550.89904,63.982934 551.42956,64.513454 552.09436,64.513454 L 555.39904,64.513454 L 555.39904,67.935324 C 555.39904,68.600124 554.86854,69.130634 554.20373,69.130634 L 549.09436,69.130634 C 548.88112,69.130634 548.68095,69.062664 548.50842,68.966574 L 548.50842,70.255634 L 555.32873,70.255634 C 555.99354,70.255634 556.52404,69.725124 556.52404,69.060324 L 556.52404,64.513454 L 559.45373,64.513454 C 560.11854,64.513454 560.64904,63.982934 560.64904,63.318134 L 560.64904,55.958764 C 560.64904,55.293964 560.11853,54.763454 559.45373,54.763454 L 556.52404,54.763454 L 556.52404,50.708764 C 556.52404,50.542564 556.49042,50.383234 556.43029,50.240014 L 554.62561,50.240014 z M 553.21936,55.888454 L 555.39904,55.888454 L 555.39904,56.943134 C 555.39904,57.607934 554.86854,58.138454 554.20373,58.138454 L 552.02404,58.138454 L 552.02404,57.083764 C 552.02404,56.418964 552.55455,55.888454 553.21936,55.888454 z M 556.52404,55.888454 L 558.32873,55.888454 C 558.99353,55.888454 559.52404,56.418964 559.52404,57.083764 L 559.52404,62.193134 C 559.52404,62.857934 558.99354,63.388454 558.32873,63.388454 L 556.52404,63.388454 L 556.52404,61.700954 C 556.52404,61.036154 555.99353,60.505634 555.32873,60.505634 L 552.02404,60.505634 L 552.02404,59.263454 L 555.32873,59.263454 C 555.99354,59.263454 556.52404,58.732934 556.52404,58.068134 L 556.52404,55.888454 z M 552.02404,61.630634 L 554.20373,61.630634 C 554.86853,61.630634 555.39904,62.161154 555.39904,62.825954 L 555.39904,63.388454 L 553.21936,63.388454 C 552.55456,63.388454 552.02404,62.857934 552.02404,62.193134 L 552.02404,61.630634 z "
       style="fill:#ffffff;fill-opacity:1;fill-rule:evenodd;stroke:none;stroke-width:1.39999998;stroke-linecap:round;stroke-linejoin:round;stroke-miterlimit:4;stroke-dasharray:none;stroke-opacity:1" />
    <rect
       style="fill:none;fill-opacity:1;fill-rule:evenodd;stroke:#28386d;stroke-width:1.45306277;stroke-linecap:round;stroke-linejoin:round;stroke-miterlimit:4;stroke-dasharray:none;stroke-opacity:1"
       id="rect3205"
       width="103.54694"
       height="28.546938"
       x="548.50836"
       y="50.239983"
       rx="6.1068211"
       ry="6.1068211" />
    <path
       transform="matrix(0.75,0,0,0.75,547.78186,49.513454)"
       id="path3207"
       d="M 133.95982,1.5625 C 134.10422,2.1713867 134.17857,2.814464 134.17857,3.46875 L 134.17857,25.21875 C 134.17857,29.729655 130.56448,33.375 126.05357,33.375 L 4.2723217,33.375 C 3.1904117,33.375 2.1525917,33.161086 1.2098217,32.78125 C 2.0609917,36.370268 5.2594517,39.031251 9.1160717,39.03125 L 130.89732,39.03125 C 135.40823,39.03125 139.02234,35.385905 139.02232,30.875 L 139.02232,9.125 C 139.02232,5.6960071 136.94782,2.7663437 133.95982,1.5625 z "
       style="opacity:0.3;fill:#000000;fill-opacity:1;fill-rule:evenodd;stroke:none;stroke-width:1.93741703;stroke-linecap:round;stroke-linejoin:round;stroke-miterlimit:4;stroke-dasharray:none;stroke-opacity:1;filter:url(#filter6132)" />
    <text
       sodipodi:linespacing="125%"
       id="text6140"
       y="316.2048"
       x="515.58044"
       style="font-size:28px;font-style:normal;font-variant:normal;font-weight:bold;font-stretch:normal;text-align:start;line-height:125%;writing-mode:lr-tb;text-anchor:start;fill:#1a1a1a;fill-opacity:1;stroke:none;stroke-width:1px;stroke-linecap:butt;stroke-linejoin:miter;stroke-opacity:1;font-family:Verdana"
       xml:space="preserve"><tspan
         y="316.2048"
         x="515.58044"
         id="tspan6142"
         sodipodi:role="line">SYSTEM</tspan></text>
    <g
       id="g3327"
       transform="matrix(0.9881689,0,0,0.9881689,-1.3622375,1.5034613)">
      <rect
         style="fill:#48485b;fill-opacity:1;fill-rule:evenodd;stroke:none;stroke-width:1.45306277;stroke-linecap:round;stroke-linejoin:round;stroke-miterlimit:4;stroke-dasharray:none;stroke-opacity:1"
         id="rect3193"
         width="320"
         height="105.03389"
         x="-81.701912"
         y="-11.395288"
         rx="6.1068211"
         ry="6.1068211" />
      <path
         sodipodi:nodetypes="ccccccc"
         id="rect3197"
         d="M -75.596486,-11.392659 C -77.272436,-11.392659 -78.776406,-10.728489 -79.877737,-9.6426589 C -76.968276,-2.3081889 -69.834886,2.8573411 -61.440236,2.8573411 L 217.52337,2.8573411 C 225.66793,2.8573411 232.61456,-1.9987089 235.67962,-8.9864089 C 234.56537,-10.441089 232.84923,-11.392659 230.86712,-11.392659 L -75.596486,-11.392659 z "
         style="opacity:0.45555558;fill:url(#linearGradient3325);fill-opacity:1;fill-rule:evenodd;stroke:none;stroke-width:1.45306277;stroke-linecap:round;stroke-linejoin:round;stroke-miterlimit:4;stroke-dasharray:none;stroke-opacity:1" />
      <path
         id="rect3213"
         d="M 236.34101,-8.9358989 C 235.42883,-6.8563289 234.15128,-4.9723189 232.62226,-3.3421489 L 232.62226,93.595351 C 235.47169,93.080201 237.62226,90.600771 237.62226,87.595351 L 237.62226,-5.2483989 C 237.62226,-6.6494689 237.12862,-7.9076589 236.34101,-8.9358989 z "
         style="opacity:0.5;fill:#000000;fill-opacity:1;fill-rule:evenodd;stroke:none;stroke-width:1.45306277;stroke-linecap:round;stroke-linejoin:round;stroke-miterlimit:4;stroke-dasharray:none;stroke-opacity:1;filter:url(#filter3230)" />
      <path
         id="path3245"
         d="M -75.596486,-11.392659 C -78.979666,-11.392659 -81.690237,-8.6820889 -81.690237,-5.2989089 L -81.690237,11.357341 C -80.756777,11.447421 -78.468036,4.6666811 -77.533986,4.7010911 C -76.589756,4.7358711 -74.743536,11.814791 -73.815236,11.638591 C -72.886946,11.462391 -73.774796,4.2044311 -72.908986,3.8260911 C -72.043176,3.4477411 -67.293906,9.0126111 -66.533986,8.4510911 C -65.774076,7.8895711 -69.712396,1.7301311 -69.096486,1.0135911 C -68.480576,0.29705112 -61.818756,3.2867211 -61.377736,2.4510911 C -60.936706,1.6154611 -67.153006,-2.2298489 -66.908986,-3.1426589 C -66.664966,-4.0554689 -59.350026,-4.2921789 -59.315236,-5.2364089 C -59.280446,-6.1806389 -66.576546,-6.9331189 -66.752736,-7.8614089 C -66.867246,-8.4646989 -64.181256,-10.083869 -62.377736,-11.392659 L -75.596486,-11.392659 z "
         style="opacity:0.5;fill:url(#radialGradient3323);fill-opacity:1;fill-rule:evenodd;stroke:none;stroke-width:0.69999999;stroke-linecap:round;stroke-linejoin:round;stroke-miterlimit:4;stroke-dasharray:none;stroke-opacity:1;filter:url(#filter3286)" />
      <rect
         ry="6.1068211"
         rx="6.1068211"
         y="-11.395288"
         x="-81.701912"
         height="105.03389"
         width="320"
         id="rect3302"
         style="fill:none;fill-opacity:1;fill-rule:evenodd;stroke:#2b3565;stroke-width:1.22324443;stroke-linecap:round;stroke-linejoin:round;stroke-miterlimit:4;stroke-dasharray:none;stroke-opacity:1" />
    </g>
    <rect
       style="opacity:0.5;fill:#ffffff;fill-opacity:1;fill-rule:evenodd;stroke:none;stroke-width:1.69388461;stroke-linecap:round;stroke-linejoin:round;stroke-miterlimit:4;stroke-dasharray:none;stroke-opacity:1"
       id="rect3338"
       width="22"
       height="48.793438"
       x="293.72653"
       y="-32.389614" />
  </g>
</svg>
