<?xml version="1.0" standalone="no"?>
<!DOCTYPE svg PUBLIC "-//W3C//DTD SVG 20010904//EN"
 "http://www.w3.org/TR/2001/REC-SVG-20010904/DTD/svg10.dtd">
<svg version="1.0" xmlns="http://www.w3.org/2000/svg"
 width="468pt" height="468pt" viewBox="0 0 468 468"
 preserveAspectRatio="xMidYMid meet">
<metadata>
Created by potrace 1.7, written by Peter Selinger 2001-2005
</metadata>
<g transform="translate(0,468) scale(0.177947,-0.177947)"
fill="#000000" stroke="none">
<path d="M1164 2595 c-25 -11 -37 -27 -56 -77 -14 -35 -63 -157 -108 -273
-116 -293 -117 -294 -146 -301 -13 -3 -29 -15 -35 -25 -5 -11 -16 -19 -23 -19
-8 0 -16 -7 -20 -15 -3 -8 -12 -15 -21 -15 -13 0 -67 -37 -116 -79 -8 -6 -30
-22 -49 -36 -19 -13 -72 -49 -118 -81 -96 -66 -118 -94 -116 -147 2 -48 52
-104 101 -113 28 -5 40 -1 76 28 23 18 59 42 80 53 20 11 37 23 37 27 0 4 15
15 32 24 18 9 62 40 98 68 103 80 140 95 140 57 0 -11 5 -23 10 -26 6 -3 10
-23 10 -43 1 -20 8 -73 16 -117 9 -44 20 -102 24 -130 28 -161 27 -160 79
-185 27 -12 64 -23 82 -24 l34 -2 5 -67 c6 -81 24 -104 92 -110 25 -3 51 -7
56 -11 9 -5 66 -16 215 -41 48 -8 93 -17 99 -21 7 -4 22 -8 35 -9 41 -1 45
-18 13 -54 -17 -18 -30 -36 -30 -41 0 -4 -21 -36 -47 -71 -26 -34 -54 -75 -63
-90 -8 -15 -39 -62 -67 -104 -29 -41 -53 -81 -53 -88 0 -31 33 -106 55 -127
19 -18 31 -21 60 -16 39 8 105 67 132 121 9 16 19 32 22 35 17 13 72 90 80
114 6 14 15 26 21 26 5 0 10 6 10 13 0 6 14 25 30 41 17 16 30 35 30 41 0 7 8
21 18 33 38 46 52 67 52 77 1 5 13 25 29 43 20 24 58 44 142 78 63 25 123 50
134 55 11 5 90 38 175 72 142 58 157 67 175 100 l20 37 -21 57 c-16 47 -27 61
-55 75 -38 19 -48 17 -134 -22 -33 -15 -96 -41 -140 -58 -44 -17 -146 -58
-228 -91 -144 -60 -180 -70 -191 -53 -3 5 -25 9 -50 9 -24 1 -53 6 -64 12 -11
6 -46 13 -78 16 -33 3 -75 10 -94 15 -88 22 -268 49 -295 43 -16 -3 -36 -12
-43 -20 -21 -21 -34 -16 -21 8 23 43 28 80 18 132 -6 28 -15 86 -20 127 -6 41
-15 80 -19 85 -5 6 -11 41 -15 79 -3 37 -9 76 -14 85 -5 9 -9 30 -9 48 0 17
-8 52 -16 77 -9 26 -16 55 -16 66 0 11 21 70 46 132 25 62 54 138 64 168 10
30 41 111 69 180 71 170 65 205 -39 243 -52 19 -46 19 -86 2z"/>
<path d="M225 1250 c-140 -140 -152 -150 -187 -150 l-38 0 0 -550 0 -550 570
0 570 0 0 42 c0 42 4 47 140 183 l140 140 -140 140 -140 140 0 227 0 228 -228
0 -227 0 -150 150 c-82 83 -152 150 -155 150 -3 0 -73 -67 -155 -150z"/>
</g>
</svg>
